# xmcd
# 
# Track frame offsets:
#     150
#     17665
#     46460
#     62662
#     81425
#     101730
#     123245
#     140687
#     161515
#     179712
#     206205
#     221587
#     240075
#     254535
# 
# Disc length: 3581
# 
# Revision: 6
# Processed by: cddbd v1.5.2PL0 Copyright (c) Steve Scherf et al.
# Submitted via: fre:ac v1.0.31
# 
DISCID=cd0dfb0e
DTITLE=Marius Müller-Westernhagen - 1992 - Westernhagen - Jaja
DYEAR=1992
DGENRE=Rock
TTITLE0=Krieg
TTITLE1=Dreh' Dich nicht um
TTITLE2=Wir werden gleich sein
TTITLE3=Charlie
TTITLE4=Steh' auf
TTITLE5=Vater Unser
TTITLE6=Komm' in meine Arme
TTITLE7=Rosi (Männer sind so schwach)
TTITLE8=Neger
TTITLE9=Du bist gemein
TTITLE10=Ich will es wissen
TTITLE11=Liebe
TTITLE12=Metropolis Blues
TTITLE13=Auf 'ner einsamen Insel
EXTD=
EXTT0=
EXTT1=
EXTT2=
EXTT3=
EXTT4=
EXTT5=
EXTT6=
EXTT7=
EXTT8=
EXTT9=
EXTT10=
EXTT11=
EXTT12=
EXTT13=
PLAYORDER=
